<svg width="17" height="15" viewBox="0 0 17 15" fill="none" xmlns="http://www.w3.org/2000/svg">
  <path d="M16.0312 0.893143H0.59375C0.265332 0.893143 0 1.17729 0 1.529V14.246C0 14.5977 0.265332 14.8819 0.59375 14.8819H16.0312C16.3597 14.8819 16.625 14.5977 16.625 14.246V1.529C16.625 1.17729 16.3597 0.893143 16.0312 0.893143ZM15.2891 3.09478V13.4512H1.33594V3.09478L0.823828 2.66757L1.55303 1.66411L2.34717 2.3258H14.2797L15.0738 1.66411L15.803 2.66757L15.2891 3.09478ZM14.2797 2.32381L8.3125 7.29141L2.34531 2.32381L1.55117 1.66213L0.821973 2.66558L1.33408 3.09279L7.67236 8.37037C7.85464 8.52202 8.07889 8.60434 8.30972 8.60434C8.54054 8.60434 8.76479 8.52202 8.94707 8.37037L15.2891 3.09478L15.8012 2.66757L15.072 1.66411L14.2797 2.32381Z" fill="#E24C4F"/>
</svg>
