<svg width="17" height="18" viewBox="0 0 17 18" fill="none" xmlns="http://www.w3.org/2000/svg">
  <path d="M8.49771 4.67592C6.08425 4.67592 4.13648 6.67785 4.13648 9.15841C4.13648 11.639 6.08425 13.6409 8.49771 13.6409C10.9112 13.6409 12.859 11.639 12.859 9.15841C12.859 6.67785 10.9112 4.67592 8.49771 4.67592ZM8.49771 12.0717C6.93694 12.0717 5.66323 10.7626 5.66323 9.15841C5.66323 7.55424 6.93694 6.24512 8.49771 6.24512C10.0585 6.24512 11.3322 7.55424 11.3322 9.15841C11.3322 10.7626 10.0585 12.0717 8.49771 12.0717ZM13.0376 3.44766C12.4741 3.44766 12.019 3.91536 12.019 4.49452C12.019 5.07368 12.4741 5.54138 13.0376 5.54138C13.6011 5.54138 14.0561 5.07587 14.0561 4.49452C14.0563 4.357 14.0301 4.22079 13.9789 4.0937C13.9278 3.96661 13.8528 3.85114 13.7582 3.75389C13.6636 3.65665 13.5512 3.57954 13.4276 3.52699C13.3039 3.47445 13.1714 3.44749 13.0376 3.44766ZM16.9991 9.15841C16.9991 7.952 17.0097 6.75653 16.9438 5.55231C16.8778 4.15358 16.5674 2.91221 15.5722 1.88939C14.575 0.86438 13.3693 0.547481 12.0084 0.47973C10.8346 0.411979 9.67149 0.422907 8.49984 0.422907C7.32607 0.422907 6.16293 0.411979 4.99129 0.47973C3.63039 0.547481 2.4226 0.866566 1.42745 1.88939C0.430165 2.91439 0.121837 4.15358 0.0559188 5.55231C-0.00999953 6.75871 0.000632484 7.95419 0.000632484 9.15841C0.000632484 10.3626 -0.00999953 11.5603 0.0559188 12.7645C0.121837 14.1632 0.432291 15.4046 1.42745 16.4274C2.42473 17.4524 3.63039 17.7693 4.99129 17.8371C6.16506 17.9048 7.3282 17.8939 8.49984 17.8939C9.67361 17.8939 10.8368 17.9048 12.0084 17.8371C13.3693 17.7693 14.5771 17.4503 15.5722 16.4274C16.5695 15.4024 16.8778 14.1632 16.9438 12.7645C17.0118 11.5603 16.9991 10.3648 16.9991 9.15841ZM15.1278 14.3119C14.9726 14.7096 14.7855 15.0068 14.4856 15.3128C14.1858 15.621 13.8988 15.8133 13.5118 15.9728C12.3933 16.4296 9.7374 16.3269 8.49771 16.3269C7.25803 16.3269 4.60003 16.4296 3.48154 15.975C3.09454 15.8155 2.80535 15.6232 2.50765 15.315C2.20783 15.0068 2.02071 14.7118 1.86548 14.314C1.42319 13.1623 1.52313 10.4326 1.52313 9.15841C1.52313 7.88425 1.42319 5.15236 1.86548 4.00278C2.02071 3.60502 2.20783 3.30779 2.50765 3.00181C2.80748 2.69584 3.09454 2.50133 3.48154 2.34179C4.60003 1.8872 7.25803 1.98992 8.49771 1.98992C9.7374 1.98992 12.3954 1.8872 13.5139 2.34179C13.9009 2.50133 14.1901 2.69366 14.4878 3.00181C14.7876 3.30997 14.9747 3.60502 15.1299 4.00278C15.5722 5.15236 15.4723 7.88425 15.4723 9.15841C15.4723 10.4326 15.5722 13.1623 15.1278 14.3119Z" fill="#E24C4F"/>
</svg>
